<svg width="24" height="22" viewBox="0 0 24 22" fill="none" xmlns="http://www.w3.org/2000/svg">
<path d="M24 7.94622C24.0004 8.35265 23.9783 8.75879 23.9338 9.16277C23.4 14.2111 19.531 19.52 12 21.9655C4.48139 19.5324 0.600009 14.24 0.0662161 9.16277C0.0215847 8.7588 -0.000518473 8.35265 9.2288e-06 7.94622C9.2288e-06 3.93243 2.44966 0.448291 6.00001 0.448291C7.15631 0.446049 8.29902 0.697475 9.3476 1.18484L15.2979 0.920015C16.1641 0.605973 17.0787 0.446312 18 0.448291C21.5504 0.448291 24 3.93243 24 7.94622Z" fill="#DF4D60"/>
<path d="M24 7.94622C24.0004 8.35265 23.9783 8.75879 23.9338 9.16277C22.4524 12.9697 17.669 15.7586 12 15.7586C6.33104 15.7586 1.5476 12.9697 0.0662161 9.16277C0.0215847 8.7588 -0.000518473 8.35265 9.2288e-06 7.94622C9.2288e-06 3.93243 2.44966 0.448291 6.00001 0.448291C7.15631 0.446049 8.29902 0.697475 9.3476 1.18484L15.2979 0.920015C16.1641 0.605973 17.0787 0.446312 18 0.448291C21.5504 0.448291 24 3.93243 24 7.94622Z" fill="#FF5364"/>
<path d="M21.2069 15.7835C19.4725 17.9915 17.2312 19.7487 14.6731 20.9062C14.4248 21.0262 14.1724 21.1421 13.9158 21.2455C13.3075 21.5103 12.6662 21.7503 12 21.9655C11.7186 21.8745 11.4413 21.7793 11.1724 21.68V17.4138C10.1374 16.2807 9.54917 14.8102 9.5172 13.2759C9.53983 11.8139 9.91456 10.3788 10.6096 9.09241C10.6565 8.9908 10.659 8.87429 10.6166 8.77073C10.5743 8.66717 10.4908 8.58585 10.3862 8.54621C9.18232 8.12991 7.9192 7.91054 6.64548 7.89655C4.66341 7.23448 4.52686 5.25242 4.55582 4.48276C4.56163 4.29954 4.68833 4.14242 4.86617 4.09793L7.26617 3.50207C7.66603 3.40062 8.01402 3.15437 8.24272 2.81104L9.21513 1.35448C9.25565 1.2952 9.29988 1.23853 9.34755 1.18483C9.55296 0.946192 9.82319 0.772267 10.1255 0.68414C11.2787 0.320894 12.4728 0.102664 13.68 0.0344849C14.3254 0.0698429 14.9202 0.395382 15.2979 0.920002C16.1596 2.1032 16.6088 3.53665 16.5765 5C16.5765 6.05931 16.1213 6.66759 15.4965 6.9531V6.96138L15.6165 7.79311L15.7075 8.43035C15.73 8.59428 15.8494 8.72835 16.0096 8.76966C16.705 9.00653 17.3277 9.41835 17.8179 9.96552C18.5834 10.7269 20.1269 13.2138 21.2069 15.7835Z" fill="#35495E"/>
<path d="M15.6166 7.79309C15.2892 7.91908 14.9411 7.98225 14.5903 7.9793C14.1383 7.97629 13.6907 7.8893 13.2703 7.72275C12.7996 7.53221 12.4906 7.07611 12.4883 6.56827V3.75861C12.4883 3.53008 12.6735 3.34482 12.9021 3.34482C13.1306 3.34482 13.3159 3.53008 13.3159 3.75861V6.56827C13.3157 6.73784 13.419 6.89035 13.5766 6.95309C14.1554 7.20232 14.8087 7.21569 15.3972 6.99033C15.4289 6.97635 15.4623 6.96661 15.4966 6.96137L15.6166 7.79309Z" fill="#2C3E50"/>
<path d="M18.6001 16.7186C18.5254 16.9343 18.2915 17.0504 18.0745 16.9793C17.2965 16.6753 16.4181 16.7793 15.7325 17.2565C14.9249 17.8918 14.4623 18.8693 14.4828 19.8965C14.4764 20.2426 14.5412 20.5863 14.6732 20.9062C14.4249 21.0262 14.1725 21.1421 13.9159 21.2455C13.7387 20.8181 13.65 20.3592 13.6552 19.8965C13.6361 18.604 14.2263 17.3777 15.2483 16.5862C16.1511 15.9542 17.3072 15.8072 18.3394 16.1931C18.5551 16.2678 18.6711 16.5017 18.6001 16.7186Z" fill="#2C3E50"/>
<path d="M6.20684 3.76691V5.00001C6.20684 5.22854 6.02158 5.4138 5.79305 5.4138H4.61374C4.56348 5.10616 4.54408 4.79427 4.55581 4.48277C4.56161 4.29954 4.68831 4.14243 4.86615 4.09794L6.20684 3.76691Z" fill="#3F5C6C"/>
</svg>
