<svg width="27" height="27" viewBox="0 0 27 27" fill="none" xmlns="http://www.w3.org/2000/svg">
<g clip-path="url(#clip0_108_1552)">
<path d="M11.2387 6.23166L13.6665 5.87497C14.6106 5.73628 15.3322 4.9614 15.4034 4.00986L15.6653 0.511198C15.6934 0.135835 15.2945 -0.121456 14.9641 0.0588955L12.746 1.26983C11.9879 1.68369 11.4553 2.41554 11.2947 3.26414L10.8163 5.79133C10.7684 6.04435 10.984 6.26911 11.2387 6.23166Z" fill="#FFE07D"/>
<path d="M14.9644 0.0588967L13.9092 0.634967L13.6599 3.9653C13.5887 4.91684 12.8671 5.69167 11.923 5.83041L10.8335 5.99051C10.8922 6.14877 11.0552 6.25867 11.2391 6.23161L13.6669 5.87487C14.6109 5.73617 15.3325 4.9613 15.4037 4.00976L15.6656 0.511094C15.6937 0.135836 15.2948 -0.121455 14.9644 0.0588967Z" fill="#FFD064"/>
<path d="M6.86708 15.9549L8.46551 15.6186C8.81509 15.6588 9.04322 16.0055 8.94181 16.3424L8.51303 17.7674L12.5039 23.3514H15.1576L25.1907 21.3855L19.5051 9.97886C18.6581 8.27939 17.6579 6.6606 16.5172 5.14259C14.7782 2.53419 11.257 1.82402 8.64291 3.5545L6.94945 4.67558C6.24661 5.14085 5.78697 5.89453 5.69501 6.73243L5.54276 8.11992C5.48839 8.61573 5.14826 9.03355 4.6738 9.18748L1.61194 10.1807L0.985352 12.6553L1.16744 13.0342C1.72015 14.1842 2.8243 14.9702 4.09193 15.1159L5.15395 15.238C5.20004 15.2433 5.24249 15.2674 5.26838 15.3059C5.61786 15.8257 6.24961 16.0848 6.86708 15.9549Z" fill="#FFD064"/>
<path d="M19.5051 9.97887C18.658 8.27939 17.6579 6.66061 16.5171 5.14259C15.0293 2.91093 12.2369 2.06902 9.82422 2.95612C10.9209 3.35675 11.9045 4.09698 12.6016 5.14259C13.7424 6.66061 14.7425 8.27939 15.5896 9.97887L22.0089 22.8577L25.1906 21.3855L19.5051 9.97887Z" fill="#FFC250"/>
<path d="M19.6744 13.383L19.7189 12.7946C19.7861 11.905 19.4196 11.0378 18.7349 10.466L16.7162 8.78022C16.4749 8.57872 16.1133 8.78686 16.1664 9.09673L16.6364 11.8414C16.6759 12.0721 16.8118 12.2749 17.0102 12.3991L19.0693 13.6888C19.3218 13.847 19.652 13.6801 19.6744 13.383Z" fill="#4A80AA"/>
<path d="M18.7349 10.466L16.7162 8.78026C16.4749 8.57877 16.1133 8.78691 16.1664 9.09678L16.3122 9.94859L17.0993 10.6059C17.784 11.1777 18.1505 12.0449 18.0833 12.9345L18.0734 13.0651L19.0692 13.6888C19.3218 13.847 19.652 13.6801 19.6744 13.383L19.7189 12.7946C19.7861 11.905 19.4196 11.0378 18.7349 10.466Z" fill="#407093"/>
<path d="M13.3881 17.6197C13.6839 17.9167 14.0468 18.1382 14.4462 18.2655C14.5014 18.2832 14.5456 18.3249 14.5662 18.3791L14.7369 18.8268C14.8552 19.1368 15.1724 19.3357 15.4997 19.2818C15.5163 19.279 15.5328 19.2758 15.5492 19.2719L16.4508 19.062C16.8146 18.9774 17.0855 19.3935 16.8608 19.6919L15.93 20.9284C15.4016 21.6303 15.1338 22.4858 15.1575 23.3513H26.1628C26.3463 23.3513 26.4775 23.1728 26.4211 22.9982C26.3062 22.6425 26.2198 22.278 26.1635 21.9077L25.6712 18.67C25.4796 17.4099 24.9462 16.2265 24.1289 15.2483L21.9998 12.7002C21.2934 11.8547 20.3175 11.2779 19.236 11.0667L19.1227 11.0446C17.7089 10.7685 16.2459 11.1419 15.1374 12.0618L14.66 12.4579C13.9697 13.0307 13.6574 13.9411 13.8508 14.8169L14.0084 15.5308L13.0898 16.5422L13.1253 17.3557L13.3881 17.6197Z" fill="#407093"/>
<path d="M7.71198 10.1504C8.09765 10.1504 8.41029 9.83771 8.41029 9.45205C8.41029 9.06638 8.09765 8.75374 7.71198 8.75374C7.32632 8.75374 7.01367 9.06638 7.01367 9.45205C7.01367 9.83771 7.32632 10.1504 7.71198 10.1504Z" fill="#707DD3"/>
<path d="M0.697124 12.0555L0.98537 12.6553L1.13688 12.252C1.23475 11.9916 1.48793 11.8226 1.766 11.8322L2.48165 11.8569C2.76821 11.8668 2.92051 11.5222 2.72028 11.317L1.61191 10.1806L1.48186 10.2228C0.719378 10.4701 0.349868 11.333 0.697124 12.0555Z" fill="#407093"/>
<path d="M2.72051 11.317L1.61213 10.1806L1.48209 10.2228C1.2276 10.3054 1.01719 10.4568 0.862305 10.6483L1.78827 11.5977C1.8573 11.6684 1.89168 11.7525 1.89927 11.8368L2.48188 11.8569C2.76844 11.8668 2.92074 11.5222 2.72051 11.317Z" fill="#365E7D"/>
<path d="M4.7724 12.9744C5.02531 12.9744 5.23034 12.7694 5.23034 12.5165C5.23034 12.2636 5.02531 12.0585 4.7724 12.0585C4.51948 12.0585 4.31445 12.2636 4.31445 12.5165C4.31445 12.7694 4.51948 12.9744 4.7724 12.9744Z" fill="#FFC250"/>
<path d="M6.54242 12.9744C6.79533 12.9744 7.00036 12.7694 7.00036 12.5165C7.00036 12.2636 6.79533 12.0585 6.54242 12.0585C6.2895 12.0585 6.08447 12.2636 6.08447 12.5165C6.08447 12.7694 6.2895 12.9744 6.54242 12.9744Z" fill="#FFC250"/>
<path d="M5.79828 14.2459C6.05119 14.2459 6.25622 14.0408 6.25622 13.7879C6.25622 13.535 6.05119 13.33 5.79828 13.33C5.54536 13.33 5.34033 13.535 5.34033 13.7879C5.34033 14.0408 5.54536 14.2459 5.79828 14.2459Z" fill="#FFC250"/>
<path d="M16.0103 16.1798C16.3688 16.1798 16.6593 15.8892 16.6593 15.5308C16.6593 15.1724 16.3688 14.8818 16.0103 14.8818C15.6519 14.8818 15.3613 15.1724 15.3613 15.5308C15.3613 15.8892 15.6519 16.1798 16.0103 16.1798Z" fill="#95D6A4"/>
<path d="M13.6436 16.5013L13.0899 16.5423L13.0333 16.6047C12.8764 16.7773 12.861 17.0359 12.996 17.226L13.1253 17.3558L13.7037 17.3129C13.9278 17.2962 14.0961 17.1011 14.0795 16.8769C14.0629 16.6529 13.868 16.4852 13.6436 16.5013Z" fill="#E28086"/>
<path d="M13.2497 6.65149L14.3003 6.7028L16.0545 6.47478C16.0545 6.47478 16.8548 6.5688 17.2519 6.16649C17.4901 5.92513 17.6703 5.62227 17.7656 5.27739L18.6994 1.89554C18.7996 1.53272 18.458 1.20313 18.099 1.31614L15.6884 2.07504C14.8646 2.33439 14.2005 2.94943 13.8787 3.75089L12.9204 6.1378C12.8244 6.37669 12.9925 6.63894 13.2497 6.65149Z" fill="#FFE07D"/>
<path d="M18.0989 1.31614L16.685 1.76127C16.6856 1.80499 16.68 1.84997 16.6674 1.89554L15.7336 5.27739C15.5375 5.9872 14.9818 6.5185 14.3003 6.7028L15.7006 6.7712C16.6537 6.81776 17.5115 6.19713 17.7655 5.27739L18.6993 1.89554C18.7995 1.53272 18.4579 1.20308 18.0989 1.31614Z" fill="#FFD064"/>
<path d="M16.7799 11.9067L16.8933 11.9288C17.9747 12.14 18.9505 12.7168 19.6571 13.5623L21.7862 16.1105C22.6035 17.0886 23.1369 18.2721 23.3285 19.5322L23.8208 22.7699C23.8506 22.9655 23.8894 23.1594 23.9356 23.3515H26.163C26.3465 23.3515 26.4777 23.173 26.4213 22.9984C26.3064 22.6427 26.22 22.2781 26.1637 21.9079L25.6714 18.6702C25.4798 17.4101 24.9463 16.2266 24.1291 15.2485L22 12.7003C21.2935 11.8548 20.3176 11.278 19.2361 11.0668L19.1229 11.0447C17.8306 10.7924 16.4974 11.083 15.4312 11.8372C15.8771 11.7971 16.331 11.819 16.7799 11.9067Z" fill="#365E7D"/>
<path d="M21.0776 13.2973C21.0776 13.2973 21.6638 12.7126 21.6925 12.3657C21.7353 11.8473 21.6316 11.32 21.382 10.8474L20.1535 8.52192C20.0067 8.24396 19.5932 8.29943 19.5247 8.60624L18.9186 11.3241C18.8677 11.5525 18.9166 11.7917 19.0529 11.9819L20.0499 13.3718L21.0776 13.2973Z" fill="#4A80AA"/>
<path d="M21.3819 10.8475L20.1534 8.52198C20.0066 8.24402 19.5931 8.29949 19.5246 8.6063L19.3027 9.60129L19.9929 10.9078C20.3986 11.6758 20.4178 12.5882 20.0498 13.3719L20.4689 13.9563C20.6426 14.1984 21.0114 14.1693 21.1449 13.9028L21.4092 13.3753C21.8087 12.5776 21.7985 11.6362 21.3819 10.8475Z" fill="#407093"/>
<path d="M21.8913 27C23.6505 27 25.0766 25.5739 25.0766 23.8147C25.0766 22.0556 23.6505 20.6295 21.8913 20.6295C20.1321 20.6295 18.7061 22.0556 18.7061 23.8147C18.7061 25.5739 20.1321 27 21.8913 27Z" fill="#B3E59F"/>
<path d="M23.7593 21.2352C24.1399 21.76 24.365 22.405 24.365 23.1029C24.365 24.8621 22.9389 26.2882 21.1798 26.2882C20.4818 26.2882 19.8368 26.0631 19.312 25.6824C19.8908 26.4805 20.8303 27 21.8915 27C23.6507 27 25.0768 25.5739 25.0768 23.8147C25.0768 22.7535 24.5573 21.814 23.7593 21.2352Z" fill="#95D6A4"/>
<path d="M21.5334 25.0129C21.4255 25.0129 21.3219 24.97 21.2456 24.8937L20.4346 24.0827C20.2757 23.9237 20.2757 23.6661 20.4346 23.5071C20.5935 23.3483 20.8512 23.3483 21.0101 23.5071L21.5334 24.0304L22.8694 22.6943C23.0283 22.5355 23.286 22.5355 23.4449 22.6943C23.6039 22.8532 23.6039 23.1109 23.4449 23.2698L21.8211 24.8937C21.7448 24.97 21.6413 25.0129 21.5334 25.0129Z" fill="#F2FBFF"/>
<path d="M12.7813 22.4157C12.9113 21.977 12.5826 21.5369 12.1251 21.5369C11.6753 21.5369 11.3478 21.1105 11.4639 20.6759L11.5077 20.5121C11.6237 20.0775 11.2962 19.6511 10.8465 19.6511H10.7548C10.3175 19.6511 9.9924 19.2466 10.0865 18.8195L10.1351 18.599C10.2292 18.1719 9.90402 17.7674 9.4667 17.7674H8.51305L7.759 20.2733C7.53899 21.0044 7.42725 21.7637 7.42725 22.5272V23.0801C7.42725 23.23 7.54869 23.3515 7.69856 23.3515H12.504L12.7813 22.4157Z" fill="#F9F6F6"/>
<path d="M19.7038 16.9414L21.0879 17.132C21.3105 17.1626 21.5159 17.007 21.5465 16.7844C21.5772 16.5617 21.4216 16.3563 21.1989 16.3257L19.8148 16.1351C19.0455 16.0291 18.273 16.1587 17.5789 16.5102L16.7247 16.9472C16.5555 17.0339 16.4515 17.2127 16.46 17.4028C16.4684 17.5928 16.5878 17.7617 16.7643 17.8331L17.7136 18.2166C18.1251 18.3788 18.491 18.6453 18.7715 18.9872L19.2445 19.5636C19.325 19.6617 19.4417 19.7125 19.5594 19.7125C19.6502 19.7125 19.7416 19.6823 19.8173 19.6202C19.9911 19.4776 20.0164 19.2212 19.8738 19.0474L19.4008 18.4709C19.2138 18.2431 18.9978 18.0409 18.7604 17.8692C19.0835 17.9409 19.3942 18.0648 19.6797 18.2382L20.8934 18.9757C20.9595 19.0158 21.0324 19.0349 21.1044 19.0349C21.2419 19.0349 21.376 18.9653 21.4526 18.8392C21.5693 18.6471 21.5082 18.3968 21.3161 18.2801L20.1024 17.5427C19.627 17.2538 19.0965 17.0729 18.5476 17.0091C18.9223 16.9116 19.3135 16.8878 19.7038 16.9414Z" fill="#4A80AA"/>
</g>
<defs>
<clipPath id="clip0_108_1552">
<rect width="27" height="27" fill="white"/>
</clipPath>
</defs>
</svg>
